<svg width="860" height="620" viewBox="0 0 860 620" fill="none" xmlns="http://www.w3.org/2000/svg">
  <defs>
    <linearGradient id="wbg" x1="124" y1="68" x2="744" y2="536" gradientUnits="userSpaceOnUse">
      <stop stop-color="#0D1930"/>
      <stop offset="1" stop-color="#0B1324"/>
    </linearGradient>
    <linearGradient id="accent" x1="226" y1="152" x2="602" y2="446" gradientUnits="userSpaceOnUse">
      <stop stop-color="#246BFF"/>
      <stop offset="1" stop-color="#39D2C0"/>
    </linearGradient>
  </defs>
  <rect x="90" y="66" width="680" height="488" rx="34" fill="url(#wbg)"/>
  <rect x="90.75" y="66.75" width="678.5" height="486.5" rx="33.25" stroke="white" stroke-opacity="0.08" stroke-width="1.5"/>
  <rect x="134" y="112" width="174" height="126" rx="24" fill="#FFFFFF" fill-opacity="0.08"/>
  <rect x="160" y="142" width="96" height="16" rx="8" fill="#DDE8F8"/>
  <rect x="160" y="172" width="118" height="12" rx="6" fill="#B3C5E2" fill-opacity="0.6"/>
  <rect x="160" y="198" width="90" height="12" rx="6" fill="#B3C5E2" fill-opacity="0.4"/>
  <rect x="344" y="112" width="174" height="126" rx="24" fill="#FFFFFF" fill-opacity="0.08"/>
  <rect x="370" y="142" width="96" height="16" rx="8" fill="#DDE8F8"/>
  <rect x="370" y="172" width="118" height="12" rx="6" fill="#B3C5E2" fill-opacity="0.6"/>
  <rect x="370" y="198" width="90" height="12" rx="6" fill="#B3C5E2" fill-opacity="0.4"/>
  <rect x="554" y="112" width="174" height="126" rx="24" fill="#FFFFFF" fill-opacity="0.08"/>
  <rect x="580" y="142" width="96" height="16" rx="8" fill="#DDE8F8"/>
  <rect x="580" y="172" width="118" height="12" rx="6" fill="#B3C5E2" fill-opacity="0.6"/>
  <rect x="580" y="198" width="90" height="12" rx="6" fill="#B3C5E2" fill-opacity="0.4"/>
  <path d="M308 175H344" stroke="url(#accent)" stroke-width="10" stroke-linecap="round"/>
  <path d="M518 175H554" stroke="url(#accent)" stroke-width="10" stroke-linecap="round"/>
  <rect x="190" y="298" width="480" height="180" rx="30" fill="#FFFFFF" fill-opacity="0.08"/>
  <rect x="224" y="334" width="160" height="18" rx="9" fill="#DDE8F8"/>
  <rect x="224" y="372" width="408" height="14" rx="7" fill="#B3C5E2" fill-opacity="0.5"/>
  <rect x="224" y="404" width="250" height="24" rx="12" fill="#246BFF" fill-opacity="0.24" stroke="#4E88FF" stroke-opacity="0.5"/>
  <rect x="490" y="404" width="142" height="24" rx="12" fill="#39D2C0" fill-opacity="0.16" stroke="#8CF4EA" stroke-opacity="0.45"/>
  <rect x="224" y="442" width="176" height="12" rx="6" fill="#B3C5E2" fill-opacity="0.45"/>
  <rect x="422" y="438" width="210" height="20" rx="10" fill="url(#accent)"/>
  <circle cx="430" cy="252" r="42" fill="url(#accent)"/>
  <path d="M415 252l10 10 22-24" stroke="#08111F" stroke-width="8" stroke-linecap="round" stroke-linejoin="round"/>
</svg>
