<svg width="720" height="520" viewBox="0 0 720 520" fill="none" xmlns="http://www.w3.org/2000/svg">
<rect width="720" height="520" rx="36" fill="#0A1623"/>
<circle cx="557" cy="120" r="82" fill="url(#paint0_radial)" fill-opacity="0.65"/>
<circle cx="154" cy="386" r="94" fill="url(#paint1_radial)" fill-opacity="0.5"/>
<rect x="78" y="78" width="564" height="364" rx="28" fill="#0F1D2C" stroke="rgba(255,255,255,0.12)"/>
<rect x="112" y="120" width="196" height="196" rx="24" fill="#112334"/>
<circle cx="210" cy="198" r="44" fill="#D9F1FF"/>
<path d="M180 254C194 235 225 230 244 243C255 250 264 261 270 276H150C156 266 166 259 180 254Z" fill="#A7D8FF"/>
<path d="M289 173H577" stroke="#5EAFFF" stroke-width="12" stroke-linecap="round"/>
<path d="M289 214H528" stroke="#2E5B86" stroke-width="10" stroke-linecap="round"/>
<rect x="289" y="256" width="142" height="42" rx="21" fill="#17324A"/>
<rect x="441" y="256" width="136" height="42" rx="21" fill="#17324A"/>
<rect x="289" y="318" width="96" height="34" rx="17" fill="#59A6FF"/>
<rect x="398" y="318" width="111" height="34" rx="17" fill="#8DD6FF"/>
<rect x="112" y="338" width="465" height="62" rx="22" fill="#0B1623" stroke="#1D3850"/>
<path d="M137 369H555" stroke="#274866" stroke-width="10" stroke-linecap="round"/>
<defs>
<radialGradient id="paint0_radial" cx="0" cy="0" r="1" gradientUnits="userSpaceOnUse" gradientTransform="translate(557 120) rotate(90) scale(82)">
<stop stop-color="#59A6FF"/>
<stop offset="1" stop-color="#59A6FF" stop-opacity="0"/>
</radialGradient>
<radialGradient id="paint1_radial" cx="0" cy="0" r="1" gradientUnits="userSpaceOnUse" gradientTransform="translate(154 386) rotate(90) scale(94)">
<stop stop-color="#C7ECFF"/>
<stop offset="1" stop-color="#C7ECFF" stop-opacity="0"/>
</radialGradient>
</defs>
</svg>
