<svg width="1200" height="900" viewBox="0 0 1200 900" fill="none" xmlns="http://www.w3.org/2000/svg">
<rect width="1200" height="900" rx="42" fill="#07111F"/>
<circle cx="162" cy="152" r="118" fill="#69E3D1" fill-opacity="0.12"/>
<circle cx="988" cy="182" r="140" fill="#4B7CFF" fill-opacity="0.16"/>
<circle cx="1020" cy="650" r="130" fill="#69E3D1" fill-opacity="0.08"/>
<rect x="70" y="105" width="760" height="620" rx="34" fill="#0B1730" stroke="#203252"/>
<rect x="118" y="158" width="660" height="110" rx="24" fill="#2B3C5F" fill-opacity="0.9" stroke="#5F7190" stroke-opacity="0.4"/>
<rect x="146" y="192" width="208" height="26" rx="13" fill="#D7E7FF" fill-opacity="0.9"/>
<rect x="146" y="232" width="404" height="18" rx="9" fill="#9FB0C9"/>
<rect x="594" y="180" width="120" height="66" rx="24" fill="#69E3D1"/>
<circle cx="654" cy="213" r="28" fill="#07111F"/>
<circle cx="654" cy="213" r="18" fill="#69E3D1"/>
<rect x="118" y="305" width="274" height="302" rx="28" fill="#314465" fill-opacity="0.88" stroke="#667A9B" stroke-opacity="0.5"/>
<rect x="148" y="344" width="152" height="24" rx="12" fill="#D7E7FF" fill-opacity="0.9"/>
<rect x="148" y="392" width="202" height="18" rx="9" fill="#AABBD4"/>
<rect x="148" y="456" width="186" height="34" rx="17" fill="#2D6578" stroke="#69E3D1" stroke-opacity="0.45"/>
<rect x="148" y="516" width="146" height="34" rx="17" fill="#2D6578" stroke="#69E3D1" stroke-opacity="0.35"/>
<rect x="430" y="305" width="316" height="180" rx="28" fill="#314465" fill-opacity="0.88" stroke="#667A9B" stroke-opacity="0.5"/>
<rect x="470" y="342" width="146" height="24" rx="12" fill="#D7E7FF" fill-opacity="0.9"/>
<rect x="470" y="390" width="204" height="18" rx="9" fill="#AABBD4"/>
<path d="M476 434C501 419 524 392 548 396C576 401 594 452 620 449C647 446 664 391 694 394C716 397 734 425 758 442" stroke="#69E3D1" stroke-width="14" stroke-linecap="round"/>
<rect x="428" y="520" width="328" height="108" rx="28" fill="#5A8BEE"/>
<rect x="468" y="562" width="156" height="22" rx="11" fill="#D7E7FF" fill-opacity="0.85"/>
<rect x="468" y="602" width="210" height="18" rx="9" fill="#C1D4F8" fill-opacity="0.75"/>
<circle cx="822" cy="402" r="80" fill="#69E3D1" fill-opacity="0.12"/>
<path d="M923 278C991 230 1044 236 1092 294C1128 338 1144 392 1144 482C1144 584 1106 664 1024 730" stroke="#A6D4FF" stroke-width="16" stroke-linecap="round" opacity="0.42"/>
<path d="M947 242C1030 240 1096 295 1110 390C1126 500 1088 583 1000 650" stroke="#69E3D1" stroke-width="10" stroke-linecap="round" opacity="0.36"/>
<ellipse cx="992" cy="462" rx="104" ry="184" fill="#1D5F9E" fill-opacity="0.35"/>
<circle cx="1002" cy="286" r="58" fill="#BBD5FF"/>
<path d="M944 350C970 318 1035 314 1067 350L1092 520C1098 553 1073 584 1039 584H972C938 584 913 553 919 520L944 350Z" fill="#6AB2FF"/>
<path d="M931 584H1080L1102 714C1108 747 1082 776 1048 776H964C930 776 904 747 910 714L931 584Z" fill="#4496F0"/>
<ellipse cx="1004" cy="806" rx="122" ry="28" fill="#08131F" opacity="0.55"/>
</svg>
