<svg width="1200" height="900" viewBox="0 0 1200 900" fill="none" xmlns="http://www.w3.org/2000/svg"><rect width="1200" height="900" rx="40" fill="#07111F"/><rect x="118" y="122" width="964" height="656" rx="34" fill="#091427" stroke="#213451"/><circle cx="206" cy="198" r="112" fill="#69E3D1" fill-opacity="0.12"/><circle cx="992" cy="696" r="120" fill="#4B7CFF" fill-opacity="0.14"/><rect x="176" y="192" width="262" height="484" rx="28" fill="#12233D" stroke="#294565"/><rect x="484" y="192" width="260" height="484" rx="28" fill="#12233D" stroke="#294565"/><rect x="790" y="192" width="232" height="484" rx="28" fill="#12233D" stroke="#294565"/><rect x="214" y="246" width="148" height="22" rx="11" fill="#D7E7FF"/><rect x="214" y="290" width="170" height="18" rx="9" fill="#9AAECC"/><rect x="214" y="336" width="186" height="18" rx="9" fill="#9AAECC"/><rect x="522" y="246" width="148" height="22" rx="11" fill="#D7E7FF"/><rect x="522" y="290" width="170" height="18" rx="9" fill="#9AAECC"/><rect x="522" y="336" width="186" height="18" rx="9" fill="#9AAECC"/><rect x="830" y="246" width="148" height="22" rx="11" fill="#D7E7FF"/><rect x="830" y="290" width="130" height="18" rx="9" fill="#9AAECC"/><rect x="214" y="420" width="182" height="178" rx="24" fill="#314A71"/><rect x="522" y="420" width="182" height="178" rx="24" fill="#314A71"/><rect x="830" y="420" width="144" height="178" rx="24" fill="#5D8EF4"/></svg>
