<svg width="900" height="620" viewBox="0 0 900 620" fill="none" xmlns="http://www.w3.org/2000/svg">
<rect width="900" height="620" rx="32" fill="#0A1320"/>
<rect x="40" y="40" width="820" height="540" rx="28" fill="#0F1D2C" stroke="#1F3346"/>
<rect x="72" y="72" width="756" height="62" rx="20" fill="#13263A"/>
<circle cx="110" cy="103" r="8" fill="#6BAFFF"/><circle cx="136" cy="103" r="8" fill="#8ED7FF"/><circle cx="162" cy="103" r="8" fill="#D8F2FF"/>
<text x="72" y="185" font-family="Inter, Arial" font-size="16" font-weight="700" fill="#7FC7FF">Dashboard Placeholder</text>
<text x="72" y="225" font-family="Inter, Arial" font-size="34" font-weight="800" fill="#F0F7FF">Use this area for your dashboard screenshot</text>
<rect x="72" y="330" width="756" height="178" rx="24" fill="#0B1623" stroke="#1D3951"/>
<text x="102" y="372" font-family="Inter, Arial" font-size="13" font-weight="700" fill="#89D1FF">PLACEHOLDER FOR REAL SCREENSHOT</text>
<text x="102" y="408" font-family="Inter, Arial" font-size="20" font-weight="600" fill="#E2F2FF">Replace this SVG with your actual app screen later.</text>
<rect x="70" y="260" width="100" height="34" rx="17" fill="#59A6FF"/><text x="120" y="282" text-anchor="middle" font-family="Inter, Arial" font-size="12" font-weight="700" fill="#06111A">Codes</text><rect x="186" y="260" width="100" height="34" rx="17" fill="#8DD6FF"/><text x="236" y="282" text-anchor="middle" font-family="Inter, Arial" font-size="12" font-weight="700" fill="#06111A">RVU</text><rect x="302" y="260" width="100" height="34" rx="17" fill="#17324A"/><text x="352" y="282" text-anchor="middle" font-family="Inter, Arial" font-size="12" font-weight="700" fill="#DDF3FF">Docs</text><rect x="418" y="260" width="100" height="34" rx="17" fill="#2A4C6C"/><text x="468" y="282" text-anchor="middle" font-family="Inter, Arial" font-size="12" font-weight="700" fill="#DDF3FF">Flags</text>
<text x="102" y="460" font-family="Inter, Arial" font-size="14" font-weight="500" fill="#91A8BC">This file is here so the site still looks polished before you add real screenshots.</text>
</svg>