<svg width="1200" height="900" viewBox="0 0 1200 900" fill="none" xmlns="http://www.w3.org/2000/svg"><rect width="1200" height="900" rx="40" fill="#07111F"/><rect x="88" y="108" width="420" height="208" rx="28" fill="#0F213A" stroke="#294667"/><rect x="120" y="152" width="164" height="22" rx="11" fill="#D8E6FF"/><rect x="120" y="192" width="242" height="18" rx="9" fill="#93A8C8"/><rect x="120" y="228" width="198" height="18" rx="9" fill="#93A8C8"/><circle cx="972" cy="180" r="116" fill="#4B7CFF" fill-opacity="0.16"/><circle cx="190" cy="716" r="118" fill="#69E3D1" fill-opacity="0.1"/><rect x="694" y="102" width="420" height="208" rx="28" fill="#0F213A" stroke="#294667"/><rect x="726" y="148" width="174" height="22" rx="11" fill="#D8E6FF"/><rect x="726" y="190" width="254" height="18" rx="9" fill="#93A8C8"/><rect x="726" y="226" width="218" height="18" rx="9" fill="#93A8C8"/><rect x="162" y="420" width="876" height="240" rx="36" fill="#0B1730" stroke="#28405E"/><path d="M346 292L349 419" stroke="#4B7CFF" stroke-width="10" stroke-linecap="round"/><path d="M859 310L856 419" stroke="#4B7CFF" stroke-width="10" stroke-linecap="round"/><path d="M350 422H854" stroke="#4B7CFF" stroke-width="10" stroke-linecap="round" stroke-dasharray="22 20"/><circle cx="350" cy="422" r="30" fill="#4B7CFF"/><circle cx="856" cy="422" r="30" fill="#69E3D1"/><rect x="218" y="478" width="220" height="126" rx="24" fill="#2C4263"/><rect x="490" y="478" width="220" height="126" rx="24" fill="#2C4263"/><rect x="762" y="478" width="220" height="126" rx="24" fill="#2C4263"/><path d="M290 522L356 588" stroke="#FF7F93" stroke-width="12" stroke-linecap="round"/><path d="M356 522L290 588" stroke="#FF7F93" stroke-width="12" stroke-linecap="round"/><rect x="536" y="536" width="128" height="16" rx="8" fill="#C0D3EE"/><rect x="808" y="518" width="134" height="16" rx="8" fill="#C0D3EE"/><rect x="808" y="556" width="110" height="16" rx="8" fill="#8FE3D5"/></svg>
