<svg width="1200" height="900" viewBox="0 0 1200 900" fill="none" xmlns="http://www.w3.org/2000/svg"><rect width="1200" height="900" rx="40" fill="#07111F"/><circle cx="188" cy="694" r="126" fill="#69E3D1" fill-opacity="0.12"/><circle cx="998" cy="178" r="122" fill="#4B7CFF" fill-opacity="0.14"/><rect x="148" y="138" width="904" height="622" rx="34" fill="#0A1629" stroke="#203251"/><path d="M220 622L394 478L536 546L702 362L868 418L984 264" stroke="#69E3D1" stroke-width="16" stroke-linecap="round" stroke-linejoin="round"/><circle cx="220" cy="622" r="14" fill="#69E3D1"/><circle cx="394" cy="478" r="14" fill="#69E3D1"/><circle cx="536" cy="546" r="14" fill="#69E3D1"/><circle cx="702" cy="362" r="14" fill="#69E3D1"/><circle cx="868" cy="418" r="14" fill="#69E3D1"/><circle cx="984" cy="264" r="14" fill="#69E3D1"/><rect x="226" y="236" width="112" height="298" rx="22" fill="#31507D"/><rect x="380" y="194" width="112" height="340" rx="22" fill="#31507D"/><rect x="534" y="274" width="112" height="260" rx="22" fill="#31507D"/><rect x="688" y="130" width="112" height="404" rx="22" fill="#31507D"/><rect x="842" y="172" width="112" height="362" rx="22" fill="#5D8EF4"/></svg>
