<svg width="1200" height="860" viewBox="0 0 1200 860" fill="none" xmlns="http://www.w3.org/2000/svg">
<rect width="1200" height="860" rx="32" fill="#EDF4FB"/>
<rect x="32" y="32" width="1136" height="796" rx="28" fill="#FFFFFF"/>
<rect x="70" y="78" width="500" height="46" rx="16" fill="#F1F6FC"/>
<rect x="88" y="95" width="200" height="12" rx="6" fill="#0F1B32"/>
<rect x="70" y="154" width="500" height="616" rx="24" fill="#F9FBFE" stroke="#D8E4F2"/>
<rect x="102" y="192" width="190" height="16" rx="8" fill="#0F1B32"/>
<rect x="102" y="228" width="420" height="12" rx="6" fill="#97AECA"/>
<rect x="102" y="258" width="394" height="12" rx="6" fill="#97AECA"/>
<rect x="102" y="318" width="430" height="116" rx="20" fill="#EAF4FF"/>
<rect x="102" y="460" width="430" height="116" rx="20" fill="#EAFBF6"/>
<rect x="102" y="602" width="430" height="116" rx="20" fill="#FFF6EA"/>
<rect x="612" y="78" width="516" height="692" rx="24" fill="#0F1B32"/>
<rect x="648" y="118" width="220" height="16" rx="8" fill="#FFFFFF"/>
<rect x="648" y="158" width="440" height="12" rx="6" fill="#8DA5C3"/>
<rect x="648" y="188" width="406" height="12" rx="6" fill="#8DA5C3"/>
<rect x="648" y="242" width="440" height="78" rx="18" fill="#1A2A47"/>
<rect x="648" y="344" width="440" height="78" rx="18" fill="#1A2A47"/>
<rect x="648" y="446" width="440" height="78" rx="18" fill="#1A2A47"/>
<rect x="648" y="548" width="440" height="146" rx="20" fill="#16253E"/>
<rect x="70" y="786" width="1058" height="18" rx="9" fill="#E9F0F8"/>
</svg>
