<svg width="1200" height="900" viewBox="0 0 1200 900" fill="none" xmlns="http://www.w3.org/2000/svg"><rect width="1200" height="900" rx="40" fill="#07111F"/><circle cx="186" cy="170" r="122" fill="#69E3D1" fill-opacity="0.12"/><circle cx="1010" cy="214" r="130" fill="#4B7CFF" fill-opacity="0.14"/><rect x="142" y="138" width="916" height="626" rx="36" fill="#0B1730" stroke="#213654"/><rect x="204" y="214" width="792" height="86" rx="26" fill="#233758"/><rect x="244" y="248" width="170" height="20" rx="10" fill="#D8E7FF"/><rect x="204" y="348" width="348" height="88" rx="24" fill="#F7FBFF"/><rect x="648" y="348" width="348" height="88" rx="24" fill="#F7FBFF"/><rect x="204" y="470" width="348" height="88" rx="24" fill="#F7FBFF"/><rect x="648" y="470" width="348" height="88" rx="24" fill="#F7FBFF"/><rect x="204" y="592" width="792" height="112" rx="26" fill="#F7FBFF"/><rect x="204" y="736" width="792" height="68" rx="34" fill="url(#g)"/><defs><linearGradient id="g" x1="204" y1="770" x2="996" y2="770" gradientUnits="userSpaceOnUse"><stop stop-color="#4B7CFF"/><stop offset="1" stop-color="#69E3D1"/></linearGradient></defs></svg>
