<svg width="1200" height="900" viewBox="0 0 1200 900" fill="none" xmlns="http://www.w3.org/2000/svg"><rect width="1200" height="900" rx="40" fill="#07111F"/><circle cx="986" cy="176" r="126" fill="#4B7CFF" fill-opacity="0.14"/><circle cx="164" cy="164" r="118" fill="#69E3D1" fill-opacity="0.12"/><rect x="108" y="104" width="984" height="692" rx="34" fill="#091427" stroke="#1C2E49"/><rect x="152" y="154" width="896" height="84" rx="24" fill="#223556"/><rect x="188" y="186" width="184" height="18" rx="9" fill="#D8E7FF"/><rect x="406" y="186" width="126" height="18" rx="9" fill="#97A9C5"/><rect x="562" y="176" width="164" height="38" rx="19" fill="#2E5A95"/><rect x="758" y="176" width="252" height="38" rx="19" fill="#69E3D1"/><rect x="152" y="274" width="392" height="474" rx="28" fill="#13233C" stroke="#2E4567"/><rect x="182" y="314" width="176" height="22" rx="11" fill="#D8E7FF"/><rect x="182" y="356" width="292" height="18" rx="9" fill="#8EA2C1"/><rect x="182" y="424" width="212" height="42" rx="21" fill="#2B6276" stroke="#69E3D1" stroke-opacity="0.35"/><rect x="182" y="488" width="232" height="42" rx="21" fill="#2B6276" stroke="#69E3D1" stroke-opacity="0.35"/><rect x="182" y="552" width="146" height="42" rx="21" fill="#2B6276" stroke="#69E3D1" stroke-opacity="0.35"/><rect x="182" y="632" width="320" height="74" rx="18" fill="#0E1929" stroke="#27405E"/><rect x="586" y="274" width="462" height="216" rx="28" fill="#13233C" stroke="#2E4567"/><rect x="620" y="316" width="154" height="22" rx="11" fill="#D8E7FF"/><rect x="620" y="360" width="266" height="18" rx="9" fill="#8EA2C1"/><path d="M626 432C654 406 676 378 705 381C741 384 760 447 796 447C832 447 847 382 887 382C918 382 942 419 978 442" stroke="#69E3D1" stroke-width="14" stroke-linecap="round"/><rect x="586" y="532" width="462" height="216" rx="28" fill="#5C8EF3"/><rect x="620" y="578" width="176" height="22" rx="11" fill="#DAE6FF"/><rect x="620" y="620" width="238" height="18" rx="9" fill="#C4D4F7"/><rect x="888" y="574" width="126" height="84" rx="24" fill="#69E3D1"/><circle cx="951" cy="616" r="30" fill="#07111F"/><path d="M935 616L947 628L970 605" stroke="#69E3D1" stroke-width="10" stroke-linecap="round" stroke-linejoin="round"/></svg>
