<svg width="1200" height="900" viewBox="0 0 1200 900" fill="none" xmlns="http://www.w3.org/2000/svg"><rect width="1200" height="900" rx="40" fill="#07111F"/><circle cx="154" cy="176" r="118" fill="#69E3D1" fill-opacity="0.12"/><circle cx="998" cy="716" r="128" fill="#4B7CFF" fill-opacity="0.14"/><rect x="118" y="240" width="220" height="132" rx="26" fill="#24385A"/><rect x="152" y="286" width="140" height="18" rx="9" fill="#D7E7FF"/><rect x="152" y="324" width="108" height="16" rx="8" fill="#9BB0CD"/><rect x="490" y="240" width="220" height="132" rx="26" fill="#24385A"/><rect x="524" y="286" width="140" height="18" rx="9" fill="#D7E7FF"/><rect x="524" y="324" width="108" height="16" rx="8" fill="#9BB0CD"/><rect x="862" y="240" width="220" height="132" rx="26" fill="#24385A"/><rect x="896" y="286" width="140" height="18" rx="9" fill="#D7E7FF"/><rect x="896" y="324" width="108" height="16" rx="8" fill="#9BB0CD"/><path d="M338 306H476" stroke="#4B7CFF" stroke-width="10" stroke-linecap="round" stroke-dasharray="24 18"/><path d="M710 306H848" stroke="#69E3D1" stroke-width="10" stroke-linecap="round" stroke-dasharray="24 18"/><circle cx="476" cy="306" r="24" fill="#4B7CFF"/><circle cx="848" cy="306" r="24" fill="#69E3D1"/><rect x="244" y="492" width="712" height="220" rx="34" fill="#0C1830" stroke="#213654"/><rect x="284" y="538" width="172" height="22" rx="11" fill="#D7E7FF"/><rect x="284" y="580" width="456" height="18" rx="9" fill="#9AAECC"/><rect x="284" y="632" width="182" height="44" rx="22" fill="#2E677A" stroke="#69E3D1" stroke-opacity="0.4"/><rect x="492" y="632" width="162" height="44" rx="22" fill="#2E677A" stroke="#69E3D1" stroke-opacity="0.4"/><rect x="704" y="628" width="200" height="54" rx="27" fill="#5D8EF4"/></svg>
